<svg width="250" height="258" viewBox="0 0 250 258" fill="none" xmlns="http://www.w3.org/2000/svg">
<path d="M33.3401 76.0503L125.5 23.0741L217.66 76.0503V181.95L125.5 234.926L33.3401 181.95V76.0503Z" fill="#34495E" stroke="#F7DF1E" stroke-width="14"/>
<path d="M151.241 109.478C142.996 114.906 132.119 108.626 132.699 98.7724C134.627 65.9724 137.88 10.9309 138.001 11.0004C138.172 11.0993 224.425 60.8974 224.602 60.9997C224.726 61.0715 178.684 91.4094 151.241 109.478Z" fill="#41B785"/>
<path d="M159.5 87.915C154.008 91.5131 146.779 87.3328 147.158 80.778C148.48 57.9255 150.796 18.388 150.992 18.5011C151.268 18.6602 211.335 53.3399 211.61 53.499C211.806 53.6121 178.66 75.3628 159.5 87.915Z" fill="#34495E"/>
<path d="M157.898 83.5674C155.148 85.3736 151.527 83.2784 151.721 79.9945C152.774 62.2555 155.234 20.95 155.321 21.0002C155.432 21.064 207.163 50.9312 207.282 50.9997C207.375 51.0535 172.759 73.805 157.898 83.5674Z" fill="#00DD83"/>
<path d="M154.336 139.706C145.513 135.28 145.513 122.72 154.336 118.295C183.706 103.565 233 78.8618 233 79.0007C233 79.1986 233 178.795 233 178.999C233 179.143 183.705 154.438 154.336 139.706Z" fill="#41B785"/>
<path d="M177.14 136.077C171.278 133.12 171.283 124.769 177.15 121.82C197.601 111.539 233 93.7759 233 94.0021C233 94.3203 233 163.68 233 163.998C233 164.224 197.59 146.394 177.14 136.077Z" fill="#34495E"/>
<path d="M180.104 132.516C177.165 131.038 177.168 126.854 180.11 125.38C195.998 117.422 233 98.9003 233 99.0005C233 99.1282 233 158.863 233 159C233 159.107 195.989 140.505 180.104 132.516Z" fill="#00DD83"/>
<path d="M95.6644 118.294C104.487 122.72 104.487 135.28 95.6638 139.705C66.2942 154.435 17 179.138 17 178.999C17 178.801 17 79.2051 17 79.0006C17 78.857 66.2948 103.562 95.6644 118.294Z" fill="#41B785"/>
<path d="M72.8602 121.923C78.7223 124.88 78.7166 133.231 72.8504 136.18C52.3986 146.461 17 164.224 17 163.998C17 163.68 17 94.3203 17 94.0021C17 93.7758 52.4099 111.606 72.8602 121.923Z" fill="#34495E"/>
<path d="M69.8964 125.484C72.8354 126.962 72.8317 131.146 69.8903 132.62C54.0017 140.578 17 159.1 17 158.999C17 158.872 17 99.1374 17 99.0005C17 98.8929 54.0112 117.495 69.8964 125.484Z" fill="#00DD83"/>
<path d="M118.905 98.7723C119.484 108.626 108.607 114.906 100.362 109.477C72.9208 91.4077 26.8803 61.0691 27.0006 60.9996C27.172 60.9007 113.425 11.1026 113.602 11.0003C113.726 10.9285 116.978 65.9716 118.905 98.7723Z" fill="#41B785"/>
<path d="M104.36 80.8377C104.73 87.3931 97.4955 91.5636 92.0084 87.9578C72.8785 75.3868 39.7962 53.6121 39.9921 53.499C40.2677 53.3399 100.335 18.6602 100.61 18.5011C100.806 18.388 103.07 57.9691 104.36 80.8377Z" fill="#34495E"/>
<path d="M99.7942 80.0518C99.9836 83.3361 96.3583 85.4248 93.6118 83.6141C78.7756 73.8332 44.2341 51.0499 44.3209 50.9998C44.4315 50.9359 96.163 21.0687 96.2816 21.0003C96.3747 20.9465 98.7703 62.3003 99.7942 80.0518Z" fill="#00DD83"/>
<path d="M99.3618 149.124C107.606 143.696 118.483 149.976 117.904 159.83C115.976 192.63 112.722 247.672 112.602 247.602C112.431 247.503 26.1777 197.705 26.0005 197.603C25.8762 197.531 71.9188 167.193 99.3618 149.124Z" fill="#41B785"/>
<path d="M91.1024 170.688C96.5945 167.089 103.824 171.27 103.444 177.825C102.123 200.677 99.8063 240.215 99.6104 240.101C99.3349 239.942 39.2679 205.263 38.9923 205.104C38.7964 204.99 71.9429 183.24 91.1024 170.688Z" fill="#34495E"/>
<path d="M92.7048 175.035C95.4543 173.229 99.0759 175.324 98.881 178.608C97.8286 196.347 95.3685 237.653 95.2816 237.602C95.171 237.539 43.4396 207.671 43.321 207.603C43.2278 207.549 77.8435 184.798 92.7048 175.035Z" fill="#00DD83"/>
<path d="M129.697 160.83C129.119 150.976 139.996 144.697 148.24 150.125C175.682 168.195 221.722 198.533 221.602 198.603C221.431 198.702 135.178 248.5 135.001 248.602C134.876 248.674 131.624 193.631 129.697 160.83Z" fill="#41B785"/>
<path d="M144.242 178.765C143.872 172.209 151.107 168.039 156.594 171.645C175.724 184.216 208.806 205.99 208.61 206.104C208.335 206.263 148.268 240.942 147.992 241.101C147.796 241.215 145.533 201.633 144.242 178.765Z" fill="#34495E"/>
<path d="M148.808 179.551C148.619 176.267 152.244 174.178 154.991 175.989C169.827 185.769 204.368 208.553 204.282 208.603C204.171 208.667 152.44 238.534 152.321 238.602C152.228 238.656 149.832 197.302 148.808 179.551Z" fill="#00DD83"/>
<path d="M120 6.88675C123.094 5.10042 126.906 5.10042 130 6.88675L228.253 63.6133C231.347 65.3996 233.253 68.7008 233.253 72.2735V185.727C233.253 189.299 231.347 192.6 228.253 194.387L130 251.113C126.906 252.9 123.094 252.9 120 251.113L21.7468 194.387C18.6528 192.6 16.7468 189.299 16.7468 185.726V72.2735C16.7468 68.7008 18.6528 65.3996 21.7468 63.6132L120 6.88675Z" stroke="#F7DF1E" stroke-width="11"/>
</svg>
